<mxfile host="65bd71144e">
    <diagram id="1C8SSKWIOxe83IKbhR6K" name="Page-1">
        <mxGraphModel dx="1384" dy="517" grid="1" gridSize="10" guides="1" tooltips="1" connect="1" arrows="1" fold="1" page="1" pageScale="1" pageWidth="850" pageHeight="1100" math="0" shadow="0">
            <root>
                <mxCell id="0"/>
                <mxCell id="1" parent="0"/>
                <mxCell id="2" value="Comuna" style="rounded=1;whiteSpace=wrap;html=1;fillColor=#FF99FF;fontColor=#000000;strokeColor=#FFCCE6;gradientColor=#FF9933;gradientDirection=north;glass=0;shadow=0;" parent="1" vertex="1">
                    <mxGeometry x="360" y="560" width="120" height="40" as="geometry"/>
                </mxCell>
                <mxCell id="3" value="Entretencion" style="rounded=1;whiteSpace=wrap;html=1;fillColor=#FF99FF;strokeColor=#FFCCE6;fontColor=#000000;gradientColor=#FF9933;gradientDirection=north;glass=0;shadow=0;" parent="1" vertex="1">
                    <mxGeometry x="1275" y="330" width="80" height="40" as="geometry"/>
                </mxCell>
                <mxCell id="5" value="Educacion" style="rounded=1;whiteSpace=wrap;html=1;fillColor=#FF99FF;strokeColor=#FFCCE6;fontColor=#000000;gradientColor=#FF9933;gradientDirection=north;glass=0;shadow=0;" parent="1" vertex="1">
                    <mxGeometry x="1275" y="250" width="80" height="40" as="geometry"/>
                </mxCell>
                <mxCell id="6" value="Salud" style="rounded=1;whiteSpace=wrap;html=1;fillColor=#FF99FF;strokeColor=#FFCCE6;fontColor=#000000;gradientColor=#FF9933;gradientDirection=north;glass=0;shadow=0;" parent="1" vertex="1">
                    <mxGeometry x="1275" y="170" width="80" height="40" as="geometry"/>
                </mxCell>
                <mxCell id="7" value="Seguridad" style="rounded=1;whiteSpace=wrap;html=1;fillColor=#FF99FF;strokeColor=#FFCCE6;fontColor=#000000;gradientColor=#FF9933;gradientDirection=north;glass=0;shadow=0;" parent="1" vertex="1">
                    <mxGeometry x="1275" y="410" width="80" height="40" as="geometry"/>
                </mxCell>
                <mxCell id="9" value="&lt;div style=&quot;text-align: justify;&quot;&gt;&lt;span style=&quot;background-color: initial;&quot;&gt;Region&lt;/span&gt;&lt;/div&gt;" style="rounded=1;whiteSpace=wrap;html=1;fillColor=#FF99FF;strokeColor=#FFCCE6;fontColor=#000000;gradientColor=#FF9933;gradientDirection=north;glass=0;shadow=0;" parent="1" vertex="1">
                    <mxGeometry x="355" y="310" width="120" height="40" as="geometry"/>
                </mxCell>
                <mxCell id="14" value="Pais" style="rounded=1;whiteSpace=wrap;html=1;fillColor=#FF99FF;strokeColor=#FFCCE6;fontColor=#000000;gradientColor=#FF9933;gradientDirection=north;glass=0;shadow=0;" parent="1" vertex="1">
                    <mxGeometry x="355" y="100" width="120" height="40" as="geometry"/>
                </mxCell>
                <mxCell id="15" value="" style="endArrow=none;html=1;entryX=0.5;entryY=1;entryDx=0;entryDy=0;exitX=0.5;exitY=0;exitDx=0;exitDy=0;startArrow=none;" parent="1" source="52" target="14" edge="1">
                    <mxGeometry width="50" height="50" relative="1" as="geometry">
                        <mxPoint x="375" y="240" as="sourcePoint"/>
                        <mxPoint x="425" y="190" as="targetPoint"/>
                    </mxGeometry>
                </mxCell>
                <mxCell id="16" value="" style="endArrow=none;html=1;exitX=0.5;exitY=0;exitDx=0;exitDy=0;startArrow=none;" parent="1" source="55" target="9" edge="1">
                    <mxGeometry width="50" height="50" relative="1" as="geometry">
                        <mxPoint x="414.71" y="520" as="sourcePoint"/>
                        <mxPoint x="415" y="350" as="targetPoint"/>
                    </mxGeometry>
                </mxCell>
                <mxCell id="19" value="Nombre_pais" style="ellipse;whiteSpace=wrap;html=1;fillColor=#330066;strokeColor=#6666FF;gradientColor=#6666FF;" parent="1" vertex="1">
                    <mxGeometry x="372.5" y="20" width="85" height="40" as="geometry"/>
                </mxCell>
                <mxCell id="20" value="" style="endArrow=none;html=1;entryX=0.5;entryY=1;entryDx=0;entryDy=0;exitX=0.5;exitY=0;exitDx=0;exitDy=0;" parent="1" source="14" target="19" edge="1">
                    <mxGeometry width="50" height="50" relative="1" as="geometry">
                        <mxPoint x="255" y="100" as="sourcePoint"/>
                        <mxPoint x="305" y="50" as="targetPoint"/>
                    </mxGeometry>
                </mxCell>
                <mxCell id="22" value="Nombre&lt;br&gt;region" style="ellipse;whiteSpace=wrap;html=1;fillColor=#330066;gradientColor=#6666FF;strokeColor=#6666FF;gradientDirection=south;" parent="1" vertex="1">
                    <mxGeometry x="555" y="280" width="80" height="40" as="geometry"/>
                </mxCell>
                <mxCell id="23" value="" style="endArrow=none;html=1;entryX=0;entryY=0.5;entryDx=0;entryDy=0;exitX=1;exitY=0.5;exitDx=0;exitDy=0;" parent="1" source="9" target="22" edge="1">
                    <mxGeometry width="50" height="50" relative="1" as="geometry">
                        <mxPoint x="475" y="400" as="sourcePoint"/>
                        <mxPoint x="525" y="350" as="targetPoint"/>
                    </mxGeometry>
                </mxCell>
                <mxCell id="24" value="Indicadores" style="rounded=1;whiteSpace=wrap;html=1;fillColor=#FF99FF;strokeColor=#FFCCE6;fontColor=#000000;gradientColor=#FF9933;gradientDirection=north;glass=0;shadow=0;" parent="1" vertex="1">
                    <mxGeometry x="360" y="800" width="120" height="40" as="geometry"/>
                </mxCell>
                <mxCell id="27" value="Nombre indicador" style="ellipse;whiteSpace=wrap;html=1;fillColor=#330066;gradientColor=#6666FF;strokeColor=#6666FF;gradientDirection=south;" parent="1" vertex="1">
                    <mxGeometry x="440" y="880" width="80" height="40" as="geometry"/>
                </mxCell>
                <mxCell id="28" value="Descripcion" style="ellipse;whiteSpace=wrap;html=1;fillColor=#330066;gradientColor=#6666FF;strokeColor=#6666FF;gradientDirection=south;" parent="1" vertex="1">
                    <mxGeometry x="320" y="880" width="80" height="40" as="geometry"/>
                </mxCell>
                <mxCell id="30" value="" style="endArrow=none;html=1;fontFamily=Helvetica;fontSize=12;fontColor=#000000;entryX=0.5;entryY=0;entryDx=0;entryDy=0;exitX=0.75;exitY=1;exitDx=0;exitDy=0;" parent="1" source="24" target="27" edge="1">
                    <mxGeometry width="50" height="50" relative="1" as="geometry">
                        <mxPoint x="380" y="820" as="sourcePoint"/>
                        <mxPoint x="340" y="810" as="targetPoint"/>
                    </mxGeometry>
                </mxCell>
                <mxCell id="31" value="" style="endArrow=none;html=1;fontFamily=Helvetica;fontSize=12;fontColor=#000000;entryX=0.25;entryY=1;entryDx=0;entryDy=0;exitX=0.5;exitY=0;exitDx=0;exitDy=0;" parent="1" source="28" target="24" edge="1">
                    <mxGeometry width="50" height="50" relative="1" as="geometry">
                        <mxPoint x="310" y="940" as="sourcePoint"/>
                        <mxPoint x="360" y="890" as="targetPoint"/>
                    </mxGeometry>
                </mxCell>
                <mxCell id="36" value="Tener" style="rhombus;whiteSpace=wrap;html=1;rounded=1;shadow=0;glass=0;strokeColor=#FFCCE6;fontFamily=Helvetica;fontSize=12;fontColor=#000000;fillColor=#4FFFA7;gradientColor=#2BFFF8;gradientDirection=north;" parent="1" vertex="1">
                    <mxGeometry x="380" y="650" width="80" height="80" as="geometry"/>
                </mxCell>
                <mxCell id="37" value="Ano" style="ellipse;whiteSpace=wrap;html=1;fillColor=#330066;gradientColor=#6666FF;strokeColor=#6666FF;gradientDirection=south;" parent="1" vertex="1">
                    <mxGeometry x="260" y="670" width="80" height="40" as="geometry"/>
                </mxCell>
                <mxCell id="38" value="Valor" style="ellipse;whiteSpace=wrap;html=1;fillColor=#330066;gradientColor=#6666FF;strokeColor=#6666FF;gradientDirection=south;" parent="1" vertex="1">
                    <mxGeometry x="510" y="670" width="80" height="40" as="geometry"/>
                </mxCell>
                <mxCell id="39" value="" style="endArrow=none;html=1;fontFamily=Helvetica;fontSize=12;fontColor=#000000;entryX=0.502;entryY=0.952;entryDx=0;entryDy=0;exitX=0.5;exitY=0;exitDx=0;exitDy=0;entryPerimeter=0;" parent="1" source="24" edge="1">
                    <mxGeometry width="50" height="50" relative="1" as="geometry">
                        <mxPoint x="350" y="770" as="sourcePoint"/>
                        <mxPoint x="420.1600000000001" y="726.1600000000001" as="targetPoint"/>
                    </mxGeometry>
                </mxCell>
                <mxCell id="40" value="" style="endArrow=none;html=1;fontFamily=Helvetica;fontSize=12;fontColor=#000000;entryX=0;entryY=0.5;entryDx=0;entryDy=0;exitX=0.94;exitY=0.498;exitDx=0;exitDy=0;exitPerimeter=0;" parent="1" source="36" target="38" edge="1">
                    <mxGeometry width="50" height="50" relative="1" as="geometry">
                        <mxPoint x="460" y="690" as="sourcePoint"/>
                        <mxPoint x="440" y="740" as="targetPoint"/>
                    </mxGeometry>
                </mxCell>
                <mxCell id="44" value="" style="endArrow=none;html=1;fontFamily=Helvetica;fontSize=12;fontColor=#000000;entryX=0.153;entryY=0.007;entryDx=0;entryDy=0;entryPerimeter=0;exitX=0.495;exitY=0.053;exitDx=0;exitDy=0;exitPerimeter=0;" parent="1" source="36" target="46" edge="1">
                    <mxGeometry width="50" height="50" relative="1" as="geometry">
                        <mxPoint x="420" y="650" as="sourcePoint"/>
                        <mxPoint x="414.87000000000006" y="600.0000000000001" as="targetPoint"/>
                    </mxGeometry>
                </mxCell>
                <mxCell id="45" value="" style="endArrow=none;html=1;fontFamily=Helvetica;fontSize=12;fontColor=#000000;entryX=0.044;entryY=0.485;entryDx=0;entryDy=0;entryPerimeter=0;exitX=1;exitY=0.5;exitDx=0;exitDy=0;" parent="1" source="37" edge="1">
                    <mxGeometry width="50" height="50" relative="1" as="geometry">
                        <mxPoint x="340" y="770" as="sourcePoint"/>
                        <mxPoint x="383.5200000000001" y="688.8" as="targetPoint"/>
                    </mxGeometry>
                </mxCell>
                <mxCell id="46" value="N" style="text;html=1;align=center;verticalAlign=middle;resizable=0;points=[];autosize=1;strokeColor=none;fillColor=none;" parent="1" vertex="1">
                    <mxGeometry x="415" y="600" width="30" height="30" as="geometry"/>
                </mxCell>
                <mxCell id="47" value="N" style="text;html=1;align=center;verticalAlign=middle;resizable=0;points=[];autosize=1;strokeColor=none;fillColor=none;" parent="1" vertex="1">
                    <mxGeometry x="430" y="760" width="30" height="30" as="geometry"/>
                </mxCell>
                <mxCell id="48" value="N" style="text;html=1;align=center;verticalAlign=middle;resizable=0;points=[];autosize=1;strokeColor=none;fillColor=none;" parent="1" vertex="1">
                    <mxGeometry x="415" y="530" width="30" height="30" as="geometry"/>
                </mxCell>
                <mxCell id="49" value="N" style="text;html=1;align=center;verticalAlign=middle;resizable=0;points=[];autosize=1;strokeColor=none;fillColor=none;" parent="1" vertex="1">
                    <mxGeometry x="415" y="280" width="30" height="30" as="geometry"/>
                </mxCell>
                <mxCell id="50" value="1&lt;span style=&quot;color: rgba(0, 0, 0, 0); font-family: monospace; font-size: 0px; text-align: start;&quot;&gt;%3CmxGraphModel%3E%3Croot%3E%3CmxCell%20id%3D%220%22%2F%3E%3CmxCell%20id%3D%221%22%20parent%3D%220%22%2F%3E%3CmxCell%20id%3D%222%22%20value%3D%22N%22%20style%3D%22text%3Bhtml%3D1%3Balign%3Dcenter%3BverticalAlign%3Dmiddle%3Bresizable%3D0%3Bpoints%3D%5B%5D%3Bautosize%3D1%3BstrokeColor%3Dnone%3BfillColor%3Dnone%3B%22%20vertex%3D%221%22%20parent%3D%221%22%3E%3CmxGeometry%20x%3D%22460%22%20y%3D%22530%22%20width%3D%2230%22%20height%3D%2230%22%20as%3D%22geometry%22%2F%3E%3C%2FmxCell%3E%3C%2Froot%3E%3C%2FmxGraphModel%3E&lt;/span&gt;" style="text;html=1;align=center;verticalAlign=middle;resizable=0;points=[];autosize=1;strokeColor=none;fillColor=none;" parent="1" vertex="1">
                    <mxGeometry x="415" y="350" width="30" height="30" as="geometry"/>
                </mxCell>
                <mxCell id="51" value="1&lt;span style=&quot;color: rgba(0, 0, 0, 0); font-family: monospace; font-size: 0px; text-align: start;&quot;&gt;%3CmxGraphModel%3E%3Croot%3E%3CmxCell%20id%3D%220%22%2F%3E%3CmxCell%20id%3D%221%22%20parent%3D%220%22%2F%3E%3CmxCell%20id%3D%222%22%20value%3D%22N%22%20style%3D%22text%3Bhtml%3D1%3Balign%3Dcenter%3BverticalAlign%3Dmiddle%3Bresizable%3D0%3Bpoints%3D%5B%5D%3Bautosize%3D1%3BstrokeColor%3Dnone%3BfillColor%3Dnone%3B%22%20vertex%3D%221%22%20parent%3D%221%22%3E%3CmxGeometry%20x%3D%22460%22%20y%3D%22530%22%20width%3D%2230%22%20height%3D%2230%22%20as%3D%22geometry%22%2F%3E%3C%2FmxCell%3E%3C%2Froot%3E%3C%2FmxGraphModel%3E&lt;/span&gt;" style="text;html=1;align=center;verticalAlign=middle;resizable=0;points=[];autosize=1;strokeColor=none;fillColor=none;" parent="1" vertex="1">
                    <mxGeometry x="405" y="140" width="30" height="30" as="geometry"/>
                </mxCell>
                <mxCell id="53" value="" style="endArrow=none;html=1;entryX=0.5;entryY=1;entryDx=0;entryDy=0;exitX=0.5;exitY=0;exitDx=0;exitDy=0;" parent="1" source="9" target="52" edge="1">
                    <mxGeometry width="50" height="50" relative="1" as="geometry">
                        <mxPoint x="415" y="310" as="sourcePoint"/>
                        <mxPoint x="415" y="140" as="targetPoint"/>
                    </mxGeometry>
                </mxCell>
                <mxCell id="52" value="Contiene" style="rhombus;whiteSpace=wrap;html=1;rounded=1;shadow=0;glass=0;strokeColor=#FFCCE6;fontFamily=Helvetica;fontSize=12;fontColor=#000000;fillColor=#99FF99;gradientColor=#66FFFF;gradientDirection=north;" parent="1" vertex="1">
                    <mxGeometry x="375" y="180" width="80" height="80" as="geometry"/>
                </mxCell>
                <mxCell id="57" value="" style="endArrow=none;html=1;exitX=0.5;exitY=0;exitDx=0;exitDy=0;" parent="1" source="2" target="55" edge="1">
                    <mxGeometry width="50" height="50" relative="1" as="geometry">
                        <mxPoint x="415" y="560" as="sourcePoint"/>
                        <mxPoint x="415" y="350" as="targetPoint"/>
                    </mxGeometry>
                </mxCell>
                <mxCell id="55" value="Se_divide" style="rhombus;whiteSpace=wrap;html=1;rounded=1;shadow=0;glass=0;strokeColor=#FFCCE6;fontFamily=Helvetica;fontSize=12;fontColor=#000000;fillColor=#99FF99;gradientColor=#66FFFF;gradientDirection=north;" parent="1" vertex="1">
                    <mxGeometry x="375" y="390" width="80" height="80" as="geometry"/>
                </mxCell>
                <mxCell id="58" value="Nombre&lt;br&gt;comuna" style="ellipse;whiteSpace=wrap;html=1;fillColor=#330066;gradientColor=#6666FF;strokeColor=#6666FF;gradientDirection=south;" parent="1" vertex="1">
                    <mxGeometry x="515" y="560" width="80" height="40" as="geometry"/>
                </mxCell>
                <mxCell id="66" value="Tematica" style="ellipse;whiteSpace=wrap;html=1;fillColor=#330066;gradientColor=#6666FF;strokeColor=#6666FF;gradientDirection=south;" parent="1" vertex="1">
                    <mxGeometry x="240" y="800" width="80" height="40" as="geometry"/>
                </mxCell>
                <mxCell id="67" value="" style="endArrow=none;html=1;fontFamily=Helvetica;fontSize=12;fontColor=#000000;entryX=0;entryY=0.5;entryDx=0;entryDy=0;" parent="1" target="24" edge="1">
                    <mxGeometry width="50" height="50" relative="1" as="geometry">
                        <mxPoint x="280" y="820" as="sourcePoint"/>
                        <mxPoint x="352.72" y="810" as="targetPoint"/>
                    </mxGeometry>
                </mxCell>
                <mxCell id="68" value="" style="endArrow=none;html=1;fontFamily=Helvetica;fontSize=12;fontColor=#000000;entryX=0;entryY=0.5;entryDx=0;entryDy=0;exitX=1;exitY=0.5;exitDx=0;exitDy=0;" parent="1" source="2" target="58" edge="1">
                    <mxGeometry width="50" height="50" relative="1" as="geometry">
                        <mxPoint x="485.04999999999984" y="559.9999999999999" as="sourcePoint"/>
                        <mxPoint x="515.0000000000001" y="505.12" as="targetPoint"/>
                    </mxGeometry>
                </mxCell>
                <mxCell id="82" value="Pais(nombre_pais)" style="text;html=1;align=center;verticalAlign=middle;resizable=0;points=[];autosize=1;strokeColor=none;fillColor=none;" parent="1" vertex="1">
                    <mxGeometry x="1315" y="535" width="120" height="30" as="geometry"/>
                </mxCell>
                <mxCell id="83" value="Region(nombre_region)" style="text;html=1;align=center;verticalAlign=middle;resizable=0;points=[];autosize=1;strokeColor=none;fillColor=none;" parent="1" vertex="1">
                    <mxGeometry x="1300" y="560" width="150" height="30" as="geometry"/>
                </mxCell>
                <mxCell id="84" value="Comuna(nombre_comuna)" style="text;html=1;align=center;verticalAlign=middle;resizable=0;points=[];autosize=1;strokeColor=none;fillColor=none;" parent="1" vertex="1">
                    <mxGeometry x="1295" y="645" width="170" height="30" as="geometry"/>
                </mxCell>
                <mxCell id="85" value="Tipo-indicadores(tematica, descripcion, nembre_indicador)" style="text;html=1;align=center;verticalAlign=middle;resizable=0;points=[];autosize=1;strokeColor=none;fillColor=none;" parent="1" vertex="1">
                    <mxGeometry x="1210" y="680" width="340" height="30" as="geometry"/>
                </mxCell>
                <mxCell id="86" value="Categorias(n_de_locales, URL, nombre_categoria)" style="text;html=1;align=center;verticalAlign=middle;resizable=0;points=[];autosize=1;strokeColor=none;fillColor=none;" parent="1" vertex="1">
                    <mxGeometry x="1235" y="725" width="290" height="30" as="geometry"/>
                </mxCell>
            </root>
        </mxGraphModel>
    </diagram>
</mxfile>